<svg width="96" height="96" xmlns="http://www.w3.org/2000/svg" xmlns:xlink="http://www.w3.org/1999/xlink" overflow="hidden"><defs><clipPath id="clip0"><rect x="592" y="312" width="96" height="96"/></clipPath></defs><g clip-path="url(#clip0)" transform="translate(-592 -312)"><path d="M678.3 356.3C677.3 354.3 676 352.5 674.6 350.8 666.3 341.3 651.2 341 651.2 341L622 341 622 326C617.8 330.1 617.9 329.1 598 349 598.1 349 617.9 369.9 622 374L622 358.6 651.1 358.6C651.1 358.6 665 358.6 665 371.8 665 386.3 641 386 641 386L602 389C602 389 629.5 393.5 655.1 393.2 674 393 686.8 373.2 678.3 356.3Z"/></g></svg>