<?xml version="1.0" standalone="no"?>
<!DOCTYPE svg PUBLIC "-//W3C//DTD SVG 20010904//EN"
 "http://www.w3.org/TR/2001/REC-SVG-20010904/DTD/svg10.dtd">
<svg version="1.0" xmlns="http://www.w3.org/2000/svg"
 width="920.000000pt" height="720.000000pt" viewBox="0 0 920.000000 720.000000"
 preserveAspectRatio="xMidYMid meet">

<g transform="translate(0.000000,720.000000) scale(0.100000,-0.100000)"
fill="#000000" stroke="none">
<path d="M2765 5430 l-300 -300 765 -765 765 -765 -765 -765 -765 -765 303
-302 302 -303 765 765 765 765 765 -765 765 -765 302 303 303 302 -765 765
-765 765 765 765 765 765 -303 302 -302 303 -765 -765 -765 -765 -763 763
c-419 419 -764 762 -767 762 -3 0 -140 -135 -305 -300z"/>
</g>
</svg>
