<svg width="96" height="96" xmlns="http://www.w3.org/2000/svg" xmlns:xlink="http://www.w3.org/1999/xlink" overflow="hidden"><defs><clipPath id="clip0"><rect x="-128" y="224" width="96" height="96"/></clipPath></defs><g clip-path="url(#clip0)" transform="translate(128 -224)"><path d="M-42.5 299.6-55 287.1C-56.7 285.4-59 284.8-61.2 285.2L-65.6 280.8C-61.7 275.8-59.4 269.4-59.4 262.6-59.4 246.1-72.9 232.6-89.4 232.6-105.9 232.6-119.4 246.1-119.4 262.6-119.4 279.1-105.9 292.6-89.4 292.6-82.6 292.6-76.3 290.3-71.2 286.4L-66.8 290.8C-67.2 293-66.6 295.3-64.9 297L-52.4 309.5C-51 310.9-49.2 311.6-47.4 311.6-45.6 311.6-43.8 310.9-42.4 309.5-39.8 306.7-39.8 302.3-42.5 299.6ZM-89.5 286.5C-102.7 286.5-113.5 275.7-113.5 262.5-113.5 249.3-102.7 238.5-89.5 238.5-76.3 238.5-65.5 249.3-65.5 262.5-65.5 275.7-76.3 286.5-89.5 286.5Z"/></g></svg>