<svg width="96" height="96" xmlns="http://www.w3.org/2000/svg" xmlns:xlink="http://www.w3.org/1999/xlink" overflow="hidden"><defs><clipPath id="clip0"><rect x="-43" y="205" width="96" height="96"/></clipPath></defs><g clip-path="url(#clip0)" transform="translate(43 -205)"><path d="M-18 276.1C-16 278.1-16 281.2-18 283.2L-26.5 286-28 284.5-25.2 276C-23.1 274.1-20 274.1-18 276.1ZM21.3 223.9-28.7 274-35 293-15.9 286.7 34.1 236.7"/><path d="M43.9 221.2 36.8 214.1C35.2 212.5 32.7 212.5 31.1 214.1L24.1 221.1 36.8 233.8 43.8 226.8C45.5 225.3 45.5 222.8 43.9 221.2Z"/></g></svg>