<svg width="96" height="96" xmlns="http://www.w3.org/2000/svg" xmlns:xlink="http://www.w3.org/1999/xlink" overflow="hidden"><defs><clipPath id="clip0"><rect x="-197" y="185" width="96" height="96"/></clipPath></defs><g clip-path="url(#clip0)" transform="translate(197 -185)"><path d="M-149 195C-170 195-187 212-187 233-187 254-170 271-149 271-128 271-111 254-111 233-111 212-128 195-149 195ZM-151 205C-148.2 205-146 207.2-146 210-146 212.8-148.2 215-151 215-153.8 215-156 212.8-156 210-156 207.2-153.8 205-151 205ZM-139 261-159 261-159 255-152 255-152 225-158 225-158 219-146 219-146 225-146 255-139 255-139 261Z"/></g></svg>