<svg width="96" height="96" xmlns="http://www.w3.org/2000/svg" xmlns:xlink="http://www.w3.org/1999/xlink" overflow="hidden"><defs><clipPath id="clip0"><rect x="-156" y="97" width="96" height="96"/></clipPath></defs><g clip-path="url(#clip0)" transform="translate(156 -97)"><path d="M-92 127C-92 135.837-99.1634 143-108 143-116.837 143-124 135.837-124 127-124 118.163-116.837 111-108 111-99.1634 111-92 118.163-92 127Z"/><path d="M-76 179-76 163C-76 160.6-77.2 158.2-79.2 156.6-83.6 153-89.2 150.6-94.8 149-98.8 147.8-103.2 147-108 147-112.4 147-116.8 147.8-121.2 149-126.8 150.6-132.4 153.4-136.8 156.6-138.8 158.2-140 160.6-140 163L-140 179-76 179Z"/></g></svg>